<svg xmlns="http://www.w3.org/2000/svg" width="393" height="237" fill="none"><path fill="#469D49" d="M169 234c-5 3-13 4-23 2l-3-1v-1a112 112 0 0 1 3-7h-10a106 106 0 0 0 3 3l1 1-2 1c-5 5-13 5-18 3-5-3-9-8-13-13h-3c-2 0-4 0-7 3l-2 1-1-2c-2-4-1-9 2-12l-13-13a33 33 0 0 1-22 0l-1-1a114 114 0 0 1 4-8l-6-2-7 4c-6 2-12 1-19 0h-3v-3c2-5 5-8 9-10l-2-1c-5 3-11 3-16 1-6-3-9-8-14-13l-1-2v-1l2-1 5-2a47 47 0 0 1-8-8 21 21 0 0 1-1-24h1a21 21 0 0 1-1-23h1l2 1 11 10h1l-7-8-2-2v-1l2-1c6-4 13-2 18 0l2 1-2-2a16 16 0 0 1-1-20h1a88 88 0 0 0 5 2c-1-3 1-7 3-10 3-2 5-4 8-4v-1a34 34 0 0 1-11-3l-1-1 1-3c3-8 7-13 12-15s11-3 18 1l8-5v-1h-2v-1a14 14 0 0 1 1-3 22 22 0 0 1 3-13h1a163 163 0 0 0 7 5l5-1 16 2h1l5-1c2-5 6-9 10-11 5-3 13-4 22 0l3 2v1l-2 2-1 1h2c4-3 9-4 13-5 5-1 9 1 15 2h3v1l-1 2h1a22 22 0 0 1 3-12l1-1a165 165 0 0 0 11 10l4-2-3-3-2-2v-1l2-1c6-4 13-3 18 0l3 2h2l-4-5-2-2V8l2-1c6-4 13-2 18 0l6 4 4-1c5-2 10-1 16 3l1 2h2l-7-8-2-2V4l2-1c6-4 13-3 18 0 5 2 8 6 13 10l1 1a23 23 0 0 1 2-5h1l2 2a81 81 0 0 1 12 12c3 3 4 7 4 11a23 23 0 0 1 3-8h1l2 2a81 81 0 0 1 14 14c4-1 9 0 12 2 5 2 8 6 13 10l2 2v1l-2 1c-2 3-5 4-8 4a11 11 0 0 0-2 3l3-1c5-2 10 0 16 4l2 1v1a65 65 0 0 1-7 10h2l7-6c5-2 11-2 19 3l2 2v1l-1 2c-3 6-5 11-9 13l3 4 1-1c5-1 10 0 16 4l2 2-1 3c-4 6-7 9-11 11a39 39 0 0 1-2 17l5 2 3 2v1l-2 2c-3 7-5 13-11 15-4 3-10 4-16 4l-4 2a35 35 0 0 1 3 9l-1 1h-2c-6 2-11 1-15-1l-5 4c-3 2-7 2-11 2l-4 4 4 2 3 2v1l-2 2c-3 7-5 12-11 15a29 29 0 0 1-19 3 22 22 0 0 1-3 15 2279 2279 0 0 0-3-1 261 261 0 0 1-6-5v1l-2 3c-2 6-5 11-9 13-6 2-13 2-21-1l-2-1v-4h1-7l-1 2c-2 3-5 4-7 5v1h-13l-1 2-1-1-1-2-1-3-6-5-11 2 1 1 2 2-2 2c-3 3-8 3-11 2l-7-5h-1l-4-7c-2 5-5 8-9 11ZM279 21l1-3-4 2 3 1ZM44 93l-1-6h-5l4 4h1l1 2Z"/></svg>