<svg xmlns="http://www.w3.org/2000/svg" width="212" height="130" fill="none"><path fill="#3C9A3F" d="M112 19a17 17 0 0 1 13-1l1 1a47 47 0 0 1-2 3h5a48 48 0 0 0-2-1v-1l1-1c3-2 6-2 9-1l7 6h1l4-1v-1a353 353 0 0 0 1 1c1 2 0 4-1 6l7 5a19 19 0 0 1 11 0v2l-2 2 3 1 4-2h11v1c-1 3-3 4-5 5h9c3 1 5 3 7 6l1 1-1 1h-2l3 4a8 8 0 0 1 1 10 8 8 0 0 1 0 11h-1l-1-1-5-4 3 3 1 1-1 1a11 11 0 0 1-10 0 6 6 0 0 1 1 0c2 3 2 6 1 9h-2l-2-1c1 2 0 4-1 5l-4 2a19 19 0 0 1 5 1l1 1-1 1c-1 3-3 6-6 7-2 1-5 1-9-1l-4 2v1h1a6 6 0 0 1 0 2 9 9 0 0 1-2 5 73 73 0 0 0-4-2l-2 1-8-1h-3l-5 5c-3 1-7 2-11 0l-2-1 1-1v-1h-1l-6 3-8-1h-1v-2a9 9 0 0 1-2 6 93 93 0 0 0-6-4h-1l1 2 1 1-1 1c-3 2-7 1-9 0l-2-1 2 2v1l-1 1h-9l-3-2-2 1c-2 0-5 0-8-2v-1h-1l3 4 1 1-1 1h-9l-6-5h-1a10 10 0 0 1-1 2l-1-1-6-5c-2-2-2-3-2-5a9 9 0 0 1-2 3h-1a39 39 0 0 1-7-6l-6-1-7-5-1-1 1-1 4-2a5 5 0 0 0 1-1l-1 1c-3 0-6 0-8-2l-1-1a27 27 0 0 1 3-4l-1-1-3 3c-3 1-6 1-10-1l-1-1 1-1c1-3 2-5 4-6l-1-2-1 1c-3 0-5 0-8-2l-1-1 1-1c1-3 3-4 5-5a15 15 0 0 1 1-8H4l-1-1v-1l1-1 5-7 9-1 2-1a14 14 0 0 1-2-4l2-1 7 1 3-2h5l2-2-2-1-1-1v-1l1-1c1-3 2-5 5-6l10-2a9 9 0 0 1 1-6h1a84 84 0 0 0 4 2l1-1c1-3 2-5 5-6 2-1 6-1 10 1h1v2h3l1-1 3-3h8v2l3 2 6-1h-1l-1-1 1-1 6-1 4 2v1l2 2v1c1-3 2-4 4-5Zm-55 94v1l2-1h-2Zm118-32 1 3 2-1-2-1-1-1Z"/><path fill="#54C358" d="M94 73a3353 3353 0 0 1-3-3c-8-5-15-6-20-4-4 2-6 7-9 15l-1 2v1l2 3c7 6 14 7 18 5 6-2 9-8 12-17l1-2Z"/><path fill="#4BAE4F" d="M67 61a3665 3665 0 0 0-4 0c-9 2-15 6-17 11-2 4 0 9 4 15l1 3 1 1h3c10-1 16-5 18-10s0-10-5-18l-1-2Z"/><path fill="#54C358" d="M50 74v-1l-3-1c-7-5-14-6-19-4s-7 7-9 14l-2 3v1l2 3c7 6 14 6 19 5 5-3 8-8 11-17l1-3Z"/><path fill="#4BAE4F" d="M125 69a10420 10420 0 0 0-3-2c-8-5-15-6-20-4-4 2-6 7-9 14l-1 3v1l2 2c7 7 14 7 18 5 6-2 9-7 12-16l1-3Z"/><path fill="#54C358" d="m75 62-1-1-2-1c-5-4-8-6-13-6a17 17 0 0 0-15 13 3589 3589 0 0 0 3 2c5 3 8 5 12 5a20 20 0 0 0 16-12ZM123 98v-1l-1-2c-3-6-5-10-10-11a17 17 0 0 0-18 6v1l1 1c4 5 5 9 9 10a20 20 0 0 0 19-4Z"/><path fill="#4BAE4F" d="M7 73v1l2 2c5 5 10 7 14 7 4-1 8-5 11-12l1-2v-1l-2-2c-5-5-10-7-14-6-5 1-8 4-11 11l-1 2ZM41 102v1l2 2c5 5 10 7 14 6s8-5 11-11l1-3-1-1-1-1c-6-5-11-7-15-7-4 1-8 5-10 12l-1 2ZM49 45l-1 1v3c1 7 3 12 7 13 4 2 9 1 16-2l2-2 1-1-1-2c0-8-3-12-7-14-3-2-8-1-15 3l-2 1Z"/><path fill="#54C358" d="m91 110 1-1 1-2c4-6 4-13 0-17h-1c-1-2-5-2-11-3l-3-1h-1l-1 2c-4 6-4 13 0 18l12 3 3 1ZM19 49v1l2 1 1 6c1 2 1 4 3 5l-1-1h1c1 2 4 3 7 4 4 1 10 0 12-3l1-3h-1l-1-2c-3-2-1-4-2-5a8 8 0 0 0-2-5h-1c-2-2-4-3-7-3-3-1-8 0-11 3l-1 2ZM84 62l1 1 3-1 6 2h5-1 1l7-4c2-3 5-8 3-12l-1-2h-1l-2 1h-4l-2-2a9 9 0 0 0-5 0h-1l-6 5c-3 3-5 7-4 10l1 2ZM63 87v-1l-2-2c-7-6-13-7-17-6s-6 6-8 13l-2 3a3394 3394 0 0 0 2 3c6 7 12 9 16 7 4-1 7-6 10-15l1-2Z"/><path fill="#54C358" d="M32 68v-2c-1-6-1-9-5-11-3-3-10-4-16 0l-2 1v1l1 2c1 5 1 7 4 9a20 20 0 0 0 18 0ZM93 74h1l1-2c4-6 3-12-1-15l-10-1h-3l-1 1-1 1c-4 6-3 13 1 16h13Z"/><path fill="#4BAE4F" d="m78 90 1 1h2c3 0 4 2 5 3h5-1l6-3 3-5c1-1 2-4 1-6l-2-1h-2l-3-1-2-2-5-1-6 4c-1 2-4 6-3 9l1 2Z"/><path fill="#54C358" d="m167 58-1-1h-3c-9-1-15 1-18 4-2 3-1 8 2 15v3l1 1 3 1c9 2 16 0 18-3 3-4 2-9-1-17l-1-3Z"/><path fill="#4BAE4F" d="M140 58h-1l-2 1c-7 5-10 11-9 16 1 4 6 7 13 11l2 2a837 837 0 0 1 4-1c8-4 10-10 9-14-1-5-5-9-13-14l-3-1Z"/><path fill="#54C358" d="m134 75-1-1h-3c-9-1-15 1-18 4s-1 8 1 15l1 3 4 2c9 2 15 0 18-3 3-4 2-9-1-17l-1-3Z"/><path fill="#4BAE4F" d="M190 44h-1l-3-1c-9-1-16 1-18 4-3 3-2 8 1 15l1 3v1l3 1c10 3 16 0 19-3s2-9-1-17l-1-3Z"/><path fill="#54C358" d="m147 56-1-1h-2c-7-1-11-2-15 0-3 2-6 7-4 14l1 2 1 1h15c2-2 6-7 5-14v-2ZM203 69v-1l-2-1c-5-4-9-7-14-7a12 12 0 0 0-11 12l1 1 2 1c6 3 9 6 12 6 4-1 9-3 12-9v-2Z"/><path fill="#4BAE4F" d="m100 90 3 1c7 3 12 4 15 1 2-2 3-6 2-14l-1-2v-1l-3-1c-7-3-12-3-15-1s-3 7-2 14l1 3ZM142 102v1l3 1c7 2 12 3 15 0 2-2 3-7 1-14v-2a553 553 0 0 0-3-2c-8-3-13-3-16 0-2 2-3 6-1 13l1 3ZM117 51l1 1 1 2c4 6 8 10 12 10s8-3 11-9l1-2a49133 49133 0 0 1-1-3c-4-6-9-9-13-9-3 0-7 2-10 8l-2 2Z"/><path fill="#54C358" d="M184 90h1l1-2c0-7-3-13-9-15-2-1-6 0-12 1l-3 1-1 3a14 14 0 0 0 9 14c2 1 5 0 12-1l2-1ZM96 65h1l2 1 4 5c1 2 2 3 4 3h-1 9c2-1 7-3 7-7v-3h-1l-2-1c-2 0-2-1-3-2l-1-3a8 8 0 0 0-4-3h-1l-7 1c-3 0-6 3-7 6v3ZM154 53h1l2-1c3-2 5-1 6-1l5-2h-1c2-1 3-4 3-7 1-3 0-8-4-10l-2-1h-1l-1 2c-2 2-5 0-6 0l-4 2h-1v1l-2 6c-1 3 0 7 3 10l2 1ZM151 81l-1-1-3-1c-9-2-15-1-17 2-3 2-1 6 1 13l1 3v1l3 2c9 3 15 2 18-1 2-3 2-8-1-16l-1-2Z"/><path fill="#54C358" d="M116 77a16857 16857 0 0 1-1-3c-3-5-5-8-9-8-4-1-10 1-13 6l-1 2v1l2 1c4 5 5 7 8 8 3 0 9-1 13-6l1-1ZM167 60l1-1v-2c1-6-3-11-8-13l-9 4-2 1a486 486 0 0 0-1 2c-1 7 3 12 8 13 1 1 3-1 9-3l2-1Z"/><path fill="#4BAE4F" d="M164 78h9c2 1 3 0 4-1v1l3-6v-5l-4-5h-3l-1 1h-4l-2-1-4 1c-2 1-2 3-3 6 0 2 1 6 3 8l2 1Z"/><path fill="#54C358" d="M60 96v1l3 2c8 4 14 4 19 2 4-2 5-7 6-15l1-3v-1l-2-2c-8-6-14-6-18-4-5 3-7 9-9 17v3Z"/><path fill="#4BAE4F" d="m85 106 1 1 3-1c9-3 14-7 15-12 2-4-1-9-5-15l-1-3-1-1h-3c-10 2-15 6-16 11-2 5 1 11 6 18l1 2Z"/><path fill="#54C358" d="M100 92v1l3 1c8 4 14 5 19 2 4-2 5-7 6-14l1-3v-1l-2-3c-8-5-14-5-18-3-5 2-7 8-9 17v3Z"/><path fill="#4BAE4F" d="M32 102v1l2 1c8 4 15 5 19 2 4-2 6-7 7-14l1-3v-1l-2-3c-8-5-15-5-19-3s-7 8-8 17v3Z"/><path fill="#54C358" d="m78 105 1 1 1 1c6 4 9 6 14 5a15 15 0 0 0 12-14h-1l-2-1c-6-3-8-5-12-4a17 17 0 0 0-13 12ZM31 73v1l1 2c3 6 5 9 10 11a14 14 0 0 0 16-8v-1l-1-2c-4-4-5-8-9-9a17 17 0 0 0-17 6Z"/><path fill="#4BAE4F" d="M139 90a336 336 0 0 1-2-3c-5-5-9-7-13-6s-7 5-9 12l-1 3v1l2 2c5 5 10 6 14 5s6-5 9-12v-2ZM106 63v-1l-2-2c-5-4-10-6-13-5-4 1-7 5-9 13l-1 2v1l2 2c6 5 10 6 14 5s7-5 9-12v-3ZM103 120l1-1-1-2c-1-7-3-12-6-13-4-2-9 0-15 4l-2 1a679 679 0 0 1 0 4c1 7 3 11 7 13 3 1 8 0 14-4l2-2Z"/><path fill="#54C358" d="M60 59h-1l-1 2c-4 7-4 14 1 18l11 2 3 1h1l1-2c4-7 3-13-1-18l-12-2-2-1ZM130 115v-1l-1-2c-2-2-2-4-2-6l-3-4h1l-8-2c-3-1-9 0-10 4l-1 2v1l2 1c2 2 1 4 1 6l3 4v1l7 2c3 0 8-1 10-4l1-2ZM69 106a346 346 0 0 1-3 0l-6-1h-5c-2 1-4 2-6 5s-4 8-2 11l2 2h1l2-1c3-1 4 1 6 2l5-1c2-1 4-2 6-5s3-7 1-10l-1-2ZM87 80v1l3 2c6 5 12 6 16 4 4-1 5-6 6-13l1-3v-1l-2-2c-6-6-12-7-16-6-4 2-6 7-8 15v3Z"/><path fill="#54C358" d="M117 96v3c1 6 1 9 5 11 3 2 9 3 15-1l2-2v-1l-1-1c-1-6-1-9-4-10-3-2-8-3-15 0l-2 1ZM61 94l-1 1-2 2c-3 5-2 12 2 15h12a356 356 0 0 0 3-3c3-5 2-12-1-15h-1c-1-1-4 1-10 1l-2-1Z"/><path fill="#4BAE4F" d="m73 78-1-1h-2c-3 0-4-2-5-2l-4-1c-2 1-4 2-6 5l-2 4v6l2 1 1 1 2-1 3 1 2 2h4l5-4c2-2 3-6 2-9l-1-2Z"/><path fill="#54C358" d="M75 53v1l3 1c9 2 16 1 20-2 3-3 3-8 2-16l1-2-1-1-2-2c-10-4-16-3-20 0s-5 9-4 18l1 3Z"/><path fill="#4BAE4F" d="M104 56h1l3-1c8-4 11-10 11-14 1-5-3-8-10-13l-2-2-1-1-3 1c-9 3-13 9-13 13 0 5 4 10 12 16l2 1Z"/><path fill="#54C358" d="M114 40h1l3 1c9 3 16 2 20-1 3-3 3-8 2-16v-4l-3-2c-9-4-16-2-19 0-4 4-5 10-4 19v3Z"/><path fill="#4BAE4F" d="m47 64 1 1 3 1c9 2 16 2 19-2 4-2 4-7 3-15v-4l-3-2c-9-4-16-3-19 0-4 4-5 9-4 18v3Z"/><path fill="#54C358" d="m96 57 1 1h2c6 3 11 4 15 2a14 14 0 0 0 8-15v-1l-3-1c-6-1-10-3-13-1a16 16 0 0 0-10 15ZM38 38a2565 2565 0 0 1 2 3c4 4 8 7 13 7a15 15 0 0 0 15-10 2455 2455 0 0 1-3-3c-5-3-7-6-12-6-4 0-10 2-14 7l-1 2Z"/><path fill="#4BAE4F" d="m155 29-1-1-2-1c-7-4-13-4-16-3-4 2-6 7-6 14v2a408 408 0 0 0 3 2c7 4 13 4 16 2 4-1 6-6 6-13v-2ZM112 12l-1-1-2-1c-7-3-12-4-16-2-3 2-5 7-5 14v2l1 1 2 1c7 3 13 4 16 2 4-2 5-7 5-14v-2ZM127 65v-1l-1-2c-4-7-8-10-12-11s-9 2-13 7l-2 2v1l1 2c4 7 8 11 12 11 4 1 9-1 13-7l2-2Z"/><path fill="#54C358" d="M63 19h-1l-1 3a14 14 0 0 0 8 16l12-1h2l1-1 1-2a14 14 0 0 0-8-16c-2-1-5 0-12 1h-2ZM153 54v-1l-2-1c-3-2-3-4-4-5s-3-3-5-3h1c-2-1-5-2-9-1-3 0-9 3-9 6v2l1 1 2 1c3 1 2 4 3 5l5 3c2 1 5 2 8 1s7-3 9-6v-2ZM87 59h-1l-2 1h-6l-5 1c-2 1-3 3-4 6-2 3-2 9 1 12l2 1h1l1-1 4-1 3 1a8 8 0 0 0 5-1v-1c2-1 3-3 4-6 1-2 1-7-1-10l-2-2ZM97 32l1 1 3 1c8 4 14 4 18 1 3-2 3-7 2-14v-4l-3-2c-8-5-14-5-17-2-4 2-5 8-4 16v3Z"/><path fill="#54C358" d="M134 40v1l1 2c2 4 3 7 8 8 4 1 10 1 15-4l1-2a253 253 0 0 0-1-2c-3-5-4-7-7-8a20 20 0 0 0-17 5ZM75 51h-1l-1 3c-1 6 2 12 7 14l10-3 2-1h1l1-3c1-6-2-12-7-13-2-1-4 1-10 2l-2 1Z"/><path fill="#4BAE4F" d="M82 33h-3l-6-1h-4c-2 1-3 2-4 5l-1 5c0 2 0 4 2 5l2 2 1-1h5l2 2 4-1h1l3-5c1-2 2-7 0-9l-2-2Z"/></svg>