<svg xmlns="http://www.w3.org/2000/svg" width="320" height="346" fill="none"><path fill="#A24E4E" d="M205.9 14.6a616.4 616.4 0 0 0 3.6 129.6c3.8 46.8-3.6 77.3 4 123.8l2.3 14.4c0-1.3 0-2 .2-1.4a23 23 0 0 0 3.4 5.2c1.7 1.6 3.3 3 4.3 3.5-.7 0-.5.2-.1.3l1.8.3 5.5.2 13-.2c9.2.2 19.2.3 30 5l2.5 1.3c12.8 7.3 18.2 15.2 28.6 20.1l12.1 6.2c2.3 1.1 1.9 2.6 1.9 4.3h-2.8c-4.8 0-9.5-.2-14.3-1-12.2-1.3-24.9-9.1-33.3-11.1l-1.8-.5a58 58 0 0 0-20.4 1.7l-12.2 2.8c-4.8.7-8 2.6-18.2 1.2-17.7-5.2-27.7-11-38.2-27.8h-39c-2.2 4.7-5.4 7.7-7.6 9.9-4.2 3.7-8 5.9-11.7 7.8-7.6 3.8-13.9 6-22.6 8a197.5 197.5 0 0 1-51.9 1.3h-1.3c.3-.2-.5-.3-1.2-.4h-2.8l-6.5.3c-4.5.3-9.2.8-13.9 1.6-4.2.7-8.6 1-12.9 1.8-1.2.4-2.9 1.3-3.9 1.2-1-.1-2 .5-2-1.2 0-2.3 1.1-3 2.8-5C6.5 314 10 310.6 14 308c9.5-5.5 16-11.5 32.1-12.4a185.3 185.3 0 0 0 44.2-8.3c1.6-2.5 3.4-4.9 4.7-7.8 1.5-3.3 2.4-8.2 2.5-11.5 3.5-43.5.6-84.5 0-123.8 2.5-47 7.5-89.8 7.6-129.6l.4-14.6h100l.4 14.6Z"/><path fill="#793333" d="M152 35c2 .9 6.2 2 6.1 2.6L157 48.9c-12 79-2.5 152.1-1.2 233.2l.2 13.2h-.4c0 .8 0 1.4-.2 2-2 9-6.6 19.3-15.2 28.1a52 52 0 0 1-29.7 14.6c-3.7.6-7.3 1-10.7 1-5.3 0-10.5.3-15.7.5-3.7.2-7.3.8-11 1-4 .3-8 .3-11.9 1.2-1.6.4-3.3.8-4.2 2.3 0-1.9 1.4-3.6 2.6-5 3.1-3.3 6.8-5.8 10.5-8 3.4-2 7.1-3.4 10.6-5 5-2.3 10-4.4 15-6.5 2.3-1.1 4.5-2.5 6.3-4 7.7-10 7.6-10 10.5-20.3-.2-.8-.3-1.7-.3-2.5h-.2l.1-2.4v-1.6l.5-9c3.5-76-1-160.2 16-236.5l1.8-11.4c0-.5 4.4-.5 6.7-.8l14.8 2ZM183.8 47c7.7 45.3 9.8 72 7.7 121.5V168.8c-4.4 59.8-1.2 88.8 9.5 137 1.7 2.4 4.5 4.7 8.8 7.4 1.5 1 3.1 1.7 4.9 2.4 11.7 4.6 23 9.1 33.4 18l.3.2.6.8c1.8 2.4 3.1 5 4 8 .5 1.9.5.9.5 2.4-.7 0-1.3 1-3 0-2.8-2-5.4-3.7-7-4.6l-.6-.4.4.3c-9.7-3.4-21.5-5-32.6-5.3a48.8 48.8 0 0 1-35.2-16.5 57.3 57.3 0 0 1-15.9-27c-.4-2-.7-4-.8-5.8 0-.2 4.7-.8 14.2-1.7-6.6-36.4-8.1-66.4-4.5-116.7 2-47.7 0-72.8-7.3-116.4l22.6-3.8Z"/><path fill="#6C2525" d="M161 36c12.3.8 18.5 1.3 18.5 1.8l-.3 11c-.4 31.3-1.2 64.6-4.4 96.7a820.3 820.3 0 0 0-2.3 124l1 12.8v.2c4.2 18.7 2 21.9-3.5 36.3-4.5 10.8-14 22.7-25.9 24.5-1.4.2-2.8.3-4.1.2l-.4-1c.8-1 1.5-2 2-3 3.7-8.6 2.9-27.5 2.5-38-.4-10.4-1.2-12.5-1.2-12.5s.3-9.1 0-9l.4-.1-.5-8.7c-2.7-41.2-8.3-84.7-4.6-128.7 2.5-31.6 2.7-62 3-94.5l.3-11.2c0-.4 6.2-.7 18.5-.8h1Z"/></svg>